{"title":"Lene Marlin-Sitting Down Here(DVDRip).AVI","uid":6054166,"size":126030424,"categoryP":"video","categoryS":"music_videos","magnet":"?xt=urn:btih:2f753664e25a430379ea22de6a36cd193ade36d7&amp;dn=Lene+Marlin-Sitting+Down+Here%28DVDRip%29.AVI&amp;tr=udp%3A%2F%2Ftracker.openbittorrent.com%3A80&amp;tr=udp%3A%2F%2Fopen.demonii.com%3A1337&amp;tr=udp%3A%2F%2Ftracker.coppersurfer.tk%3A6969&amp;tr=udp%3A%2F%2Fexodus.desync.com%3A6969","seeders":0,"leechers":1,"uploader":"wushan","files":1,"time":1292843336,"description":"                                   Sitting Down Here\n                               Single by Lene Marlin \n                      from the album Playing My Game \n\n  \\&quot;Sitting Down Here\\&quot; is a pop song written by Norwegian singer-songwriter Lene Marlin for Marlin\\'s 1999 debut album Playing My Game. The song is the album\\'s opening track, and was released as its second single, peaking at #5 in the UK Singles Chart..\n\n      Format : AVI\n      Format/Info : Audio Video Interleave\n      File size : 120 MiB\n      Duration : 3mn 57s\n      Overall bit rate : 4 253 Kbps\n   Video\n      Format : MPEG-4 Visual\n      Format profile : Simple@L3\n      Format settings, BVOP : No\n      Format settings, QPel : No\n      Format settings, GMC : No warppoints\n      Format settings, Matrix : Default\n      Codec ID : XVID\n      Codec ID/Hint : XviD\n      Duration : 3mn 57s\n      Bit rate : 3 986 Kbps\n      Width : 1 280 pixels\n      Height : 720 pixels\n      Display aspect ratio : 16/9\n      Frame rate : 30.000 fps\n      Resolution : 24 bits\n      Colorimetry : 4:2:0\n      Scan type : Progressive\n      Bits/(Pixel*Frame) : 0.144\n      Stream size : 113 MiB (94%)\n      Writing library : ZJMedia MPEG Encoder\n   Audio\n      Format : AC-3\n      Format/Info : Audio Coding 3\n      Codec ID : 2000\n      Duration : 3mn 57s\n      Bit rate mode : Constant\n      Bit rate : 256 Kbps\n      Channel(s) : 2 channels\n      Channel positions : L R\n      Sampling rate : 48.0 KHz\n      Video delay : 20ms\n      Stream size : 7.23 MiB (6%)\n      Alignment : Split accross interleaves\n      Interleave, duration : 996 ms (29.88 video frames)\n","torrent":{"xt":"urn:btih:2f753664e25a430379ea22de6a36cd193ade36d7","amp;dn":"Lene+Marlin-Sitting+Down+Here%28DVDRip%29.AVI","amp;tr":["udp%3A%2F%2Ftracker.openbittorrent.com%3A80","udp%3A%2F%2Fopen.demonii.com%3A1337","udp%3A%2F%2Ftracker.coppersurfer.tk%3A6969","udp%3A%2F%2Fexodus.desync.com%3A6969"],"infoHash":"2f753664e25a430379ea22de6a36cd193ade36d7","infoHashBuffer":{"type":"Buffer","data":[47,117,54,100,226,90,67,3,121,234,34,222,106,54,205,25,58,222,54,215]},"announce":[],"urlList":[]}}